<?xml version="1.0" encoding="UTF-8" standalone="no"?>
<!DOCTYPE svg PUBLIC "-//W3C//DTD SVG 1.1//EN" "http://www.w3.org/Graphics/SVG/1.1/DTD/svg11.dtd">
<svg width="100%" height="100%" viewBox="0 0 256 256" version="1.1" xmlns="http://www.w3.org/2000/svg" xmlns:xlink="http://www.w3.org/1999/xlink" xml:space="preserve" xmlns:serif="http://www.serif.com/" style="fill-rule:evenodd;clip-rule:evenodd;stroke-linejoin:round;stroke-miterlimit:2;">
    <g id="Layer2">
        <path d="M116.839,168.743C118.156,174.25 118.883,175.242 121,180.087C126.611,192.924 135.05,202.766 146.319,209.613C151.58,212.81 153.268,214.247 159.224,215.951C158.866,218.698 156.653,220.852 153.688,222.238C150.807,223.584 138.531,224.121 138.531,224.121C138.531,224.121 138.296,225.607 138.246,226.375C120.602,220.989 111.233,212.297 99.747,196.775C92.492,186.996 88.508,180.442 85.264,168.743L116.839,168.743ZM205.046,216.176C211.141,214.844 212.915,214.746 218.138,211.824C227.742,206.451 238.298,195.777 249.804,179.801L254.226,182.654C244.526,199.866 233.21,212.466 220.277,220.454C217.249,222.324 219.16,221.374 215.866,222.807C213.315,221.727 209.972,220.874 208.04,219.191C207.093,218.366 206.036,217.39 205.046,216.176ZM114.947,103.884C112.282,114.969 112.585,120.385 112.585,134.585C112.585,141.137 112.462,143.147 113.249,149.046L79.985,149.104L80.063,145.054C80.063,145.054 80.121,140.6 80.237,138.408L105.49,80.455L114.947,103.884ZM129.855,43.114C130.801,42.513 133.136,40.982 134.109,40.412C149.276,31.521 160.512,30.173 178.484,30.173C192.463,30.173 206.251,33.596 219.85,40.443C223.843,42.535 226.696,43.581 228.408,43.581C230.975,43.581 233.21,42.677 235.112,40.871C237.584,38.303 239.344,34.737 240.39,30.173L245.382,30.173L249.804,95.929L245.382,95.929C239.486,76.245 231.07,62.076 220.135,53.423C209.199,44.769 196.076,40.443 180.766,40.443C167.929,40.443 156.327,43.7 145.962,50.213C141.11,53.263 140.098,53.719 136.216,58.465L129.855,43.114Z" style="fill:rgb(210,45,111);fill-rule:nonzero;"/>
        <g transform="matrix(1.04204,0,0,1.04204,1.58803,233.858)">
            <text x="0px" y="0px" style="font-family:'TimesNewRomanPSMT', 'Times New Roman', serif;font-size:300px;fill:rgb(13,20,77);">A</text>
        </g>
    </g>
</svg>
