<?xml version="1.0" encoding="UTF-8" standalone="no"?>
<!DOCTYPE svg PUBLIC "-//W3C//DTD SVG 1.1//EN" "http://www.w3.org/Graphics/SVG/1.1/DTD/svg11.dtd">
<svg width="100%" height="100%" viewBox="0 0 710 428" version="1.1" xmlns="http://www.w3.org/2000/svg" xmlns:xlink="http://www.w3.org/1999/xlink" xml:space="preserve" xmlns:serif="http://www.serif.com/" style="fill-rule:evenodd;clip-rule:evenodd;stroke-linejoin:round;stroke-miterlimit:2;">
    <g transform="matrix(1,0,0,1,-188,-2913)">
        <g transform="matrix(0.993885,0,0,0.993885,-1719.02,680.538)">
            <path d="M1919.74,2314.96L2036.83,2314.96C2060.01,2314.96 2077.29,2315.93 2088.68,2317.86C2100.07,2319.79 2110.26,2323.82 2119.25,2329.95C2128.25,2336.08 2135.74,2344.23 2141.73,2354.43C2147.73,2364.62 2150.73,2376.04 2150.73,2388.69C2150.73,2402.41 2147.03,2415 2139.64,2426.46C2132.24,2437.91 2122.22,2446.51 2109.56,2452.24C2127.41,2457.43 2141.13,2466.29 2150.73,2478.81C2160.32,2491.33 2165.11,2506.05 2165.11,2522.97C2165.11,2536.29 2162.01,2549.25 2155.82,2561.84C2149.63,2574.42 2141.17,2584.48 2130.44,2592.01C2119.72,2599.53 2106.5,2604.16 2090.78,2605.89C2080.92,2606.96 2057.14,2607.63 2019.44,2607.89L1919.74,2607.89L1919.74,2314.96ZM1978.88,2363.72L1978.88,2431.45L2017.65,2431.45C2040.69,2431.45 2055.01,2431.12 2060.61,2430.45C2070.73,2429.26 2078.69,2425.76 2084.49,2419.97C2090.28,2414.17 2093.18,2406.54 2093.18,2397.09C2093.18,2388.03 2090.68,2380.67 2085.68,2375.01C2080.69,2369.34 2073.26,2365.91 2063.41,2364.72C2057.54,2364.05 2040.69,2363.72 2012.85,2363.72L1978.88,2363.72ZM1978.88,2480.21L1978.88,2558.54L2033.63,2558.54C2054.95,2558.54 2068.47,2557.94 2074.2,2556.74C2082.99,2555.14 2090.15,2551.24 2095.68,2545.05C2101.2,2538.86 2103.97,2530.56 2103.97,2520.17C2103.97,2511.38 2101.84,2503.92 2097.57,2497.79C2093.31,2491.67 2087.15,2487.2 2079.09,2484.41C2071.03,2481.61 2053.55,2480.21 2026.64,2480.21L1978.88,2480.21Z" style="fill:rgb(70,70,70);fill-rule:nonzero;"/>
            <g transform="matrix(1,0,0,1,3.3484,0)">
                <path d="M2310.62,2500.19L2367.97,2518.38C2359.18,2550.35 2344.56,2574.09 2324.11,2589.61C2303.66,2605.13 2277.72,2612.89 2246.28,2612.89C2207.38,2612.89 2175.41,2599.6 2150.37,2573.03C2125.32,2546.45 2112.8,2510.12 2112.8,2464.03C2112.8,2415.27 2125.39,2377.4 2150.57,2350.43C2175.74,2323.45 2208.85,2309.97 2249.88,2309.97C2285.71,2309.97 2314.82,2320.56 2337.2,2341.74C2350.52,2354.26 2360.51,2372.24 2367.17,2395.69L2308.62,2409.67C2305.16,2394.49 2297.93,2382.5 2286.94,2373.71C2275.95,2364.91 2262.6,2360.52 2246.88,2360.52C2225.16,2360.52 2207.55,2368.31 2194.03,2383.9C2180.51,2399.48 2173.74,2424.73 2173.74,2459.63C2173.74,2496.66 2180.41,2523.04 2193.73,2538.76C2207.05,2554.47 2224.37,2562.34 2245.68,2562.34C2261.4,2562.34 2274.92,2557.34 2286.24,2547.35C2297.57,2537.36 2305.69,2521.64 2310.62,2500.19Z" style="fill:rgb(180,119,86);fill-rule:nonzero;"/>
            </g>
            <path d="M2349.82,2607.89L2349.82,2314.96L2438.34,2314.96L2491.49,2514.78L2544.04,2314.96L2632.76,2314.96L2632.76,2607.89L2577.81,2607.89L2577.81,2377.3L2519.66,2607.89L2462.71,2607.89L2404.77,2377.3L2404.77,2607.89L2349.82,2607.89Z" style="fill:rgb(183,50,93);fill-rule:nonzero;"/>
        </g>
    </g>
</svg>
