<?xml version="1.0" encoding="UTF-8" standalone="no"?>
<!DOCTYPE svg PUBLIC "-//W3C//DTD SVG 1.1//EN" "http://www.w3.org/Graphics/SVG/1.1/DTD/svg11.dtd">
<svg width="100%" height="100%" viewBox="0 0 556 448" version="1.1" xmlns="http://www.w3.org/2000/svg" xmlns:xlink="http://www.w3.org/1999/xlink" xml:space="preserve" xmlns:serif="http://www.serif.com/" style="fill-rule:evenodd;clip-rule:evenodd;stroke-linecap:round;stroke-linejoin:round;stroke-miterlimit:1.5;">
    <g transform="matrix(1,0,0,1,-1084,-2315)">
        <g transform="matrix(-1,0,0,1,2811.02,-330.709)">
            <path d="M1495.12,2692.91C1465.81,2677.96 1431.01,2669.29 1393.7,2669.29C1289.4,2669.29 1204.72,2737.03 1204.72,2820.47C1204.72,2869.78 1234.78,2915.99 1285.26,2944.29L1261.42,3047.24L1344.74,2966.49C1358.39,2969.42 1372.42,2971.11 1386.53,2971.54" style="fill:none;stroke:black;stroke-width:30.65px;"/>
        </g>
        <g transform="matrix(1,0,0,1,-70.8661,-307.087)">
            <path d="M1582.68,2820.47C1582.68,2737.03 1498,2669.29 1393.7,2669.29C1289.4,2669.29 1204.72,2737.03 1204.72,2820.47C1204.72,2869.78 1234.78,2915.99 1285.26,2944.29L1261.42,3047.24L1344.74,2966.49C1360.7,2969.92 1377.17,2971.65 1393.7,2971.65C1498,2971.65 1582.68,2903.91 1582.68,2820.47Z" style="fill:none;stroke:black;stroke-width:30.65px;"/>
        </g>
        <g transform="matrix(0.764653,0,0,0.764653,225.932,476.754)">
            <path d="M1432.29,2727.5C1425.82,2727.5 1420.45,2722.5 1419.99,2716.04C1417.57,2681.81 1410.52,2582.17 1409.92,2573.76C1409.89,2573.38 1409.88,2573 1409.88,2572.62L1409.88,2524.72C1409.88,2520.46 1411.58,2516.37 1414.59,2513.36C1417.6,2510.34 1421.69,2508.65 1425.95,2508.65L1438.1,2508.65C1442.36,2508.65 1446.45,2510.34 1449.46,2513.36C1452.48,2516.37 1454.17,2520.46 1454.17,2524.72L1454.17,2572.66C1454.17,2573.01 1454.16,2573.37 1454.13,2573.73C1453.59,2581.92 1446.91,2681.65 1444.61,2715.98C1444.18,2722.46 1438.79,2727.5 1432.29,2727.5ZM1427.54,2799.79C1423.28,2799.79 1419.19,2798.1 1416.18,2795.08C1413.16,2792.07 1411.47,2787.98 1411.47,2783.72L1411.47,2775.15C1411.47,2770.89 1413.16,2766.8 1416.18,2763.79C1419.19,2760.77 1423.28,2759.08 1427.54,2759.08L1436.51,2759.08C1440.77,2759.08 1444.86,2760.77 1447.87,2763.79C1450.89,2766.8 1452.58,2770.89 1452.58,2775.15L1452.58,2783.72C1452.58,2787.98 1450.89,2792.07 1447.87,2795.08C1444.86,2798.1 1440.77,2799.79 1436.51,2799.79L1427.54,2799.79Z" style="fill-rule:nonzero;"/>
        </g>
    </g>
</svg>
