<?xml version="1.0" encoding="UTF-8" standalone="no"?>
<!DOCTYPE svg PUBLIC "-//W3C//DTD SVG 1.1//EN" "http://www.w3.org/Graphics/SVG/1.1/DTD/svg11.dtd">
<svg width="100%" height="100%" viewBox="0 0 302 300" version="1.1" xmlns="http://www.w3.org/2000/svg" xmlns:xlink="http://www.w3.org/1999/xlink" xml:space="preserve" xmlns:serif="http://www.serif.com/" style="fill-rule:evenodd;clip-rule:evenodd;stroke-linejoin:round;stroke-miterlimit:2;">
    <g transform="matrix(1,0,0,1,-98,-100)">
        <g id="U_Cube_Black">
            <g>
                <g>
                    <path d="M378.42,307.46L378.42,173.24L262.18,106.12L262.18,157.61L307.73,183.9C308.504,184.364 308.98,185.202 308.98,186.105C308.98,187.008 308.504,187.846 307.73,188.31L253.59,219.57C252.014,220.48 250.066,220.48 248.49,219.57L194.36,188.31C193.581,187.85 193.101,187.01 193.101,186.105C193.101,185.2 193.581,184.36 194.36,183.9L239.9,157.61L239.9,106.12L123.65,173.24L123.65,307.46L168.23,281.72L168.23,229.12C168.251,227.73 169.4,226.598 170.79,226.598C171.231,226.598 171.666,226.713 172.05,226.93L226.19,258.18C227.767,259.09 228.741,260.779 228.74,262.6L228.74,325.11C228.729,326.507 227.577,327.65 226.18,327.65C225.746,327.65 225.32,327.54 224.94,327.33L179.38,301L134.79,326.74L251,393.88L367.24,326.76L322.69,301L277.14,327.3C276.758,327.514 276.328,327.626 275.89,327.626C274.495,327.626 273.343,326.485 273.33,325.09L273.33,262.6C273.327,260.779 274.302,259.089 275.88,258.18L330,226.93C330.385,226.714 330.819,226.6 331.26,226.6C332.655,226.6 333.808,227.735 333.83,229.13L333.83,281.72L378.42,307.46Z" style="fill:rgb(204,204,204);fill-rule:nonzero;"/>
                    <path d="M251,393.88L367.24,326.77L322.69,301L277.14,327.3C276.758,327.514 276.328,327.626 275.89,327.626C274.495,327.626 273.343,326.485 273.33,325.09L273.33,262.6C273.327,260.779 274.302,259.089 275.88,258.18L330,226.93C330.385,226.714 330.819,226.6 331.26,226.6C332.655,226.6 333.808,227.735 333.83,229.13L333.83,281.72L378.41,307.46L378.41,173.23L251,246.78L251,393.88Z" style="fill-rule:nonzero;"/>
                    <path d="M262.18,106.12L262.18,157.61L307.73,183.9C308.504,184.364 308.98,185.202 308.98,186.105C308.98,187.008 308.504,187.846 307.73,188.31L253.59,219.57C252.014,220.48 250.066,220.48 248.49,219.57L194.36,188.31C193.581,187.85 193.101,187.01 193.101,186.105C193.101,185.2 193.581,184.36 194.36,183.9L239.9,157.61L239.9,106.12L123.65,173.24L251,246.78L378.39,173.24L262.18,106.12Z" style="fill:rgb(128,128,128);fill-rule:nonzero;"/>
                    <path d="M224.94,327.33L179.38,301L134.79,326.75L251,393.88L251,246.78L123.65,173.24L123.65,307.46L168.23,281.72L168.23,229.12C168.251,227.73 169.4,226.598 170.79,226.598C171.231,226.598 171.666,226.713 172.05,226.93L226.19,258.18C227.767,259.09 228.741,260.779 228.74,262.6L228.74,325.11C228.729,326.507 227.577,327.65 226.18,327.65C225.746,327.65 225.32,327.54 224.94,327.33" style="fill:rgb(77,77,77);fill-rule:nonzero;"/>
                </g>
            </g>
        </g>
    </g>
</svg>
