<?xml version="1.0" encoding="UTF-8" standalone="no"?>
<!DOCTYPE svg PUBLIC "-//W3C//DTD SVG 1.1//EN" "http://www.w3.org/Graphics/SVG/1.1/DTD/svg11.dtd">
<svg width="100%" height="100%" viewBox="0 0 122 112" version="1.1" xmlns="http://www.w3.org/2000/svg" xmlns:xlink="http://www.w3.org/1999/xlink" xml:space="preserve" xmlns:serif="http://www.serif.com/" style="fill-rule:evenodd;clip-rule:evenodd;stroke-linejoin:round;stroke-miterlimit:2;">
    <g transform="matrix(1,0,0,1,-6,-8)">
        <path d="M115.5,76.9L21.4,76.9C23.6,84.5 27.7,91.3 33.8,97.3C43.4,106.9 54.9,111.7 68.5,111.7C71.2,111.7 73.8,111.5 76.4,111.1C86.6,109.6 95.5,105 103.1,97.3C109.2,91.3 113.3,84.5 115.5,76.9Z" style="fill:rgb(44,34,85);fill-rule:nonzero;"/>
        <g>
            <path d="M28.9,54.2L20.2,54.2C19.9,56.1 19.7,58.1 19.6,60.1L117.4,60.1C117.3,58.1 117.1,56.1 116.8,54.2" style="fill:rgb(44,34,85);fill-rule:nonzero;"/>
            <path d="M19.5,65.6C19.6,67.6 19.8,69.6 20.1,71.5L116.5,71.5C116.8,69.6 117,67.6 117.1,65.6" style="fill:rgb(44,34,85);fill-rule:nonzero;"/>
        </g>
        <path d="M115.4,48.7C113.2,41.1 109,34.2 103,28.2C95.3,20.6 86.5,16 76.3,14.5C73.7,14.1 71.1,13.9 68.4,13.9C54.9,13.9 43.4,18.7 33.7,28.2C27.7,34.3 23.6,41.1 21.3,48.7" style="fill:rgb(44,34,85);fill-rule:nonzero;"/>
        <g>
            <path d="M16.6,62.8C16.6,37 36,15.5 61.2,11.8L59.3,11.8C31,11.7 8.1,34.6 8.1,62.8C8.1,91 31.1,113.9 59.4,113.9L61.3,113.9C36,110.1 16.6,88.7 16.6,62.8Z" style="fill:rgb(247,148,30);fill-rule:nonzero;"/>
        </g>
        <g>
            <path d="M101.7,60.1C101.5,58.1 101.2,56.1 100.7,54.2L36.1,54.2C35.6,56.1 35.3,58.1 35.1,60.1L101.7,60.1Z" style="fill:url(#_Linear1);fill-rule:nonzero;"/>
            <path d="M101.7,65.6L35.1,65.6C35.3,67.6 35.6,69.6 36.1,71.5L100.6,71.5C101.1,69.6 101.5,67.6 101.7,65.6Z" style="fill:url(#_Linear2);fill-rule:nonzero;"/>
            <path d="M68.4,96.2C81.8,96.2 93.3,88.3 98.7,76.9L38.1,76.9C43.4,88.3 55,96.2 68.4,96.2Z" style="fill:url(#_Linear3);fill-rule:nonzero;"/>
        </g>
        <g>
            <path d="M19.5,65.6L117.3,65.6C117.3,64.7 117.4,63.9 117.4,63C117.4,62 117.4,61.1 117.3,60.2L19.5,60.2C19.4,61.1 19.4,62.1 19.4,63C19.4,63.9 19.4,64.8 19.5,65.6Z" style="fill:white;fill-rule:nonzero;"/>
            <path d="M37.9,48.7L21.4,48.7C20.9,50.5 20.5,52.3 20.2,54.2L116.4,54.2C116.1,52.3 115.6,50.5 115.1,48.7" style="fill:white;fill-rule:nonzero;"/>
            <path d="M116.7,71.5L20.2,71.5C20.5,73.4 20.9,75.2 21.4,77L115.4,77C115.9,75.2 116.4,73.4 116.7,71.5Z" style="fill:white;fill-rule:nonzero;"/>
        </g>
    </g>
    <defs>
        <linearGradient id="_Linear1" x1="0" y1="0" x2="1" y2="0" gradientUnits="userSpaceOnUse" gradientTransform="matrix(4.50884e-15,-73.6349,73.6349,4.50884e-15,68.4,118.424)"><stop offset="0" style="stop-color:rgb(71,55,136);stop-opacity:1"/><stop offset="0.3" style="stop-color:rgb(71,55,136);stop-opacity:1"/><stop offset="0.87" style="stop-color:rgb(44,34,85);stop-opacity:1"/><stop offset="1" style="stop-color:rgb(44,34,85);stop-opacity:1"/></linearGradient>
        <linearGradient id="_Linear2" x1="0" y1="0" x2="1" y2="0" gradientUnits="userSpaceOnUse" gradientTransform="matrix(4.50884e-15,-73.6349,73.6349,4.50884e-15,68.4,118.425)"><stop offset="0" style="stop-color:rgb(71,55,136);stop-opacity:1"/><stop offset="0.3" style="stop-color:rgb(71,55,136);stop-opacity:1"/><stop offset="0.87" style="stop-color:rgb(44,34,85);stop-opacity:1"/><stop offset="1" style="stop-color:rgb(44,34,85);stop-opacity:1"/></linearGradient>
        <linearGradient id="_Linear3" x1="0" y1="0" x2="1" y2="0" gradientUnits="userSpaceOnUse" gradientTransform="matrix(4.50862e-15,-73.6313,73.6313,4.50862e-15,68.4,118.423)"><stop offset="0" style="stop-color:rgb(71,55,136);stop-opacity:1"/><stop offset="0.3" style="stop-color:rgb(71,55,136);stop-opacity:1"/><stop offset="0.86" style="stop-color:rgb(44,34,85);stop-opacity:1"/><stop offset="1" style="stop-color:rgb(44,34,85);stop-opacity:1"/></linearGradient>
    </defs>
</svg>
