<?xml version="1.0" encoding="UTF-8" standalone="no"?>
<!DOCTYPE svg PUBLIC "-//W3C//DTD SVG 1.1//EN" "http://www.w3.org/Graphics/SVG/1.1/DTD/svg11.dtd">
<svg width="100%" height="100%" viewBox="0 0 710 427" version="1.1" xmlns="http://www.w3.org/2000/svg" xmlns:xlink="http://www.w3.org/1999/xlink" xml:space="preserve" xmlns:serif="http://www.serif.com/" style="fill-rule:evenodd;clip-rule:evenodd;stroke-linejoin:round;stroke-miterlimit:2;">
    <g transform="matrix(1,0,0,1,-188,-2574)">
        <g transform="matrix(0.885773,0,0,0.885773,-50.0341,213.778)">
            <path d="M269.833,3070.87L269.833,2740.16L515.044,2740.16L515.044,2796.1L336.606,2796.1L336.606,2869.42L502.637,2869.42L502.637,2925.14L336.606,2925.14L336.606,3015.15L521.361,3015.15L521.361,3070.87L269.833,3070.87Z" style="fill:rgb(70,70,70);fill-rule:nonzero;stroke:rgb(70,70,70);stroke-width:1.13px;"/>
            <path d="M492.92,3070.87L492.92,2740.16L633.46,2740.16C668.802,2740.16 694.481,2743.13 710.497,2749.07C726.514,2755.01 739.335,2765.57 748.96,2780.76C758.585,2795.95 763.397,2813.32 763.397,2832.87C763.397,2857.69 756.103,2878.18 741.515,2894.35C726.927,2910.51 705.121,2920.7 676.096,2924.91C690.533,2933.33 702.451,2942.58 711.851,2952.66C721.25,2962.74 733.921,2980.63 749.862,3006.35L790.242,3070.87L710.385,3070.87L662.109,2998.9C644.965,2973.19 633.234,2956.98 626.918,2950.29C620.601,2943.6 613.909,2939.01 606.841,2936.53C599.772,2934.05 588.568,2932.81 573.228,2932.81L559.693,2932.81L559.693,3070.87L492.92,3070.87ZM559.693,2880.02L609.097,2880.02C641.13,2880.02 661.132,2878.67 669.102,2875.96C677.073,2873.25 683.314,2868.59 687.826,2861.97C692.338,2855.36 694.594,2847.09 694.594,2837.16C694.594,2826.03 691.623,2817.05 685.683,2810.2C679.742,2803.36 671.358,2799.03 660.53,2797.23C655.116,2796.48 638.874,2796.1 611.804,2796.1L559.693,2796.1L559.693,2880.02Z" style="fill:rgb(81,166,112);fill-rule:nonzero;"/>
            <path d="M750.452,3070.87L750.452,2740.16L850.387,2740.16L910.392,2965.74L969.722,2740.16L1069.88,2740.16L1069.88,3070.87L1007.85,3070.87L1007.85,2810.54L942.2,3070.87L877.908,3070.87L812.488,2810.54L812.488,3070.87L750.452,3070.87Z" style="fill:rgb(175,107,208);fill-rule:nonzero;"/>
        </g>
    </g>
</svg>
