<?xml version="1.0" encoding="UTF-8" standalone="no"?>
<!DOCTYPE svg PUBLIC "-//W3C//DTD SVG 1.1//EN" "http://www.w3.org/Graphics/SVG/1.1/DTD/svg11.dtd">
<svg width="100%" height="100%" viewBox="0 0 710 429" version="1.1" xmlns="http://www.w3.org/2000/svg" xmlns:xlink="http://www.w3.org/1999/xlink" xml:space="preserve" xmlns:serif="http://www.serif.com/" style="fill-rule:evenodd;clip-rule:evenodd;stroke-linejoin:round;stroke-miterlimit:2;">
    <g transform="matrix(1,0,0,1,-188,-2249)">
        <g transform="matrix(1,0,0,1,-546.833,-467.803)">
            <g transform="matrix(1,0,0,1,8.21216,0)">
                <path d="M869.233,2966.72L869.233,2918.99L992.512,2918.99L992.512,3031.83C980.532,3043.43 963.174,3053.64 940.438,3062.46C917.701,3071.28 894.675,3075.7 871.359,3075.7C841.731,3075.7 815.903,3069.48 793.875,3057.05C771.847,3044.62 755.294,3026.84 744.215,3003.72C733.137,2980.6 727.598,2955.45 727.598,2928.26C727.598,2898.76 733.781,2872.55 746.148,2849.62C758.514,2826.69 776.613,2809.11 800.444,2796.87C818.608,2787.47 841.215,2782.76 868.267,2782.76C903.435,2782.76 930.905,2790.14 950.679,2804.89C970.452,2819.64 983.173,2840.02 988.841,2866.05L932.032,2876.67C928.039,2862.76 920.535,2851.78 909.521,2843.73C898.507,2835.68 884.756,2831.65 868.267,2831.65C843.276,2831.65 823.406,2839.57 808.657,2855.42C793.907,2871.26 786.532,2894.77 786.532,2925.95C786.532,2959.57 794.004,2984.78 808.946,3001.59C823.889,3018.41 843.47,3026.81 867.688,3026.81C879.668,3026.81 891.68,3024.46 903.724,3019.76C915.769,3015.06 926.107,3009.36 934.737,3002.66L934.737,2966.72L869.233,2966.72Z" style="fill:rgb(70,70,70);fill-rule:nonzero;"/>
            </g>
            <path d="M985.17,3070.87L985.17,2787.6L1105.55,2787.6C1135.82,2787.6 1157.82,2790.14 1171.54,2795.23C1185.26,2800.32 1196.24,2809.37 1204.48,2822.38C1212.73,2835.39 1216.85,2850.26 1216.85,2867.01C1216.85,2888.27 1210.6,2905.82 1198.11,2919.67C1185.61,2933.51 1166.93,2942.24 1142.07,2945.85C1154.44,2953.06 1164.65,2960.98 1172.7,2969.62C1180.75,2978.25 1191.6,2993.58 1205.26,3015.6L1239.84,3070.87L1171.44,3070.87L1130.09,3009.23C1115.4,2987.2 1105.36,2973.32 1099.95,2967.59C1094.54,2961.85 1088.8,2957.93 1082.75,2955.8C1076.69,2953.67 1067.1,2952.61 1053.96,2952.61L1042.37,2952.61L1042.37,3070.87L985.17,3070.87ZM1042.37,2907.4L1084.68,2907.4C1112.12,2907.4 1129.25,2906.24 1136.08,2903.92C1142.91,2901.6 1148.25,2897.61 1152.12,2891.94C1155.98,2886.27 1157.91,2879.18 1157.91,2870.68C1157.91,2861.15 1155.37,2853.45 1150.28,2847.59C1145.19,2841.73 1138.01,2838.03 1128.74,2836.48C1124.1,2835.84 1110.19,2835.51 1087,2835.51L1042.37,2835.51L1042.37,2907.4Z" style="fill:rgb(74,171,189);fill-rule:nonzero;"/>
            <path d="M1389.02,2966.72L1444.47,2984.3C1435.97,3015.22 1421.83,3038.18 1402.06,3053.19C1382.28,3068.19 1357.2,3075.7 1326.8,3075.7C1289.18,3075.7 1258.26,3062.85 1234.05,3037.15C1209.83,3011.45 1197.72,2976.31 1197.72,2931.74C1197.72,2884.6 1209.89,2847.98 1234.24,2821.89C1258.59,2795.81 1290.6,2782.76 1330.27,2782.76C1364.93,2782.76 1393.07,2793.01 1414.71,2813.49C1427.6,2825.6 1437.26,2842.99 1443.7,2865.66L1387.08,2879.18C1383.73,2864.5 1376.75,2852.91 1366.12,2844.4C1355.49,2835.9 1342.58,2831.65 1327.38,2831.65C1306.38,2831.65 1289.34,2839.19 1276.27,2854.26C1263.19,2869.33 1256.65,2893.74 1256.65,2927.49C1256.65,2963.3 1263.1,2988.81 1275.98,3004.01C1288.86,3019.21 1305.61,3026.81 1326.22,3026.81C1341.42,3026.81 1354.49,3021.98 1365.44,3012.32C1376.39,3002.66 1384.25,2987.46 1389.02,2966.72Z" style="fill:rgb(196,78,179);fill-rule:nonzero;"/>
        </g>
    </g>
</svg>
