<?xml version="1.0" encoding="UTF-8" standalone="no"?>
<!DOCTYPE svg PUBLIC "-//W3C//DTD SVG 1.1//EN" "http://www.w3.org/Graphics/SVG/1.1/DTD/svg11.dtd">
<svg width="100%" height="100%" viewBox="0 0 114 54" version="1.1" xmlns="http://www.w3.org/2000/svg" xmlns:xlink="http://www.w3.org/1999/xlink" xml:space="preserve" xmlns:serif="http://www.serif.com/" style="fill-rule:evenodd;clip-rule:evenodd;stroke-linejoin:round;stroke-miterlimit:2;">
    <g transform="matrix(1,0,0,1,-66,0)">
        <g id="layer1" transform="matrix(0.445314,0,0,0.445314,29.2103,-94.3336)">
            <g id="flowRoot2411" transform="matrix(1,0,0,1,0,2.93957)">
                <path d="M126.93,296.665L91.598,281.302L91.598,272.794L126.93,257.501L126.93,267.521L102.285,276.943L126.93,286.716L126.93,296.665Z" style="fill:rgb(0,0,255);fill-rule:nonzero;"/>
            </g>
            <g id="flowRoot2419" transform="matrix(1,0,0,1,-90.5714,-14.0781)">
                <path d="M225.547,312.536L239.012,293.306L226.109,275.2L238.168,275.2L244.777,285.466L251.738,275.2L263.34,275.2L250.684,292.884L264.5,312.536L252.371,312.536L244.777,300.97L237.113,312.536L225.547,312.536ZM269.633,275.2L278.738,275.2L278.738,280.298C281.996,276.337 285.875,274.357 290.375,274.357C292.766,274.357 294.84,274.849 296.598,275.833C298.355,276.818 299.797,278.306 300.922,280.298C302.562,278.306 304.332,276.818 306.23,275.833C308.129,274.849 310.156,274.357 312.313,274.357C315.055,274.357 317.375,274.913 319.273,276.027C321.172,277.14 322.59,278.775 323.527,280.931C324.207,282.525 324.547,285.103 324.547,288.665L324.547,312.536L314.668,312.536L314.668,291.196C314.668,287.493 314.328,285.103 313.648,284.025C312.734,282.618 311.328,281.915 309.43,281.915C308.047,281.915 306.746,282.337 305.527,283.181C304.309,284.025 303.43,285.261 302.891,286.89C302.352,288.519 302.082,291.091 302.082,294.607L302.082,312.536L292.203,312.536L292.203,292.075C292.203,288.443 292.027,286.099 291.676,285.044C291.324,283.989 290.779,283.204 290.041,282.689C289.303,282.173 288.301,281.915 287.035,281.915C285.512,281.915 284.141,282.325 282.922,283.146C281.703,283.966 280.83,285.15 280.303,286.696C279.775,288.243 279.512,290.81 279.512,294.396L279.512,312.536L269.633,312.536L269.633,275.2ZM334.355,312.536L334.355,260.997L344.234,260.997L344.234,312.536L334.355,312.536Z" style="fill:rgb(212,0,0);fill-rule:nonzero;"/>
            </g>
            <g id="flowRoot2429" transform="matrix(1,0,0,1,-93.7143,9.71429)">
                <path d="M367.77,289.103L380.531,235.806L387.949,235.806L375.047,289.103L367.77,289.103Z" style="fill:rgb(0,0,255);fill-rule:nonzero;"/>
            </g>
            <path id="text2439" d="M297.459,299.605L297.459,289.656L322.139,279.952L297.459,270.355L297.459,260.476L332.826,275.769L332.826,284.206L297.459,299.605Z" style="fill:rgb(0,0,255);fill-rule:nonzero;"/>
        </g>
    </g>
</svg>
